<?xml version="1.0" encoding="UTF-8" standalone="no"?>
<svg width="89px" height="60px" viewBox="0 0 89 60" version="1.1" xmlns="http://www.w3.org/2000/svg" xmlns:xlink="http://www.w3.org/1999/xlink" xmlns:sketch="http://www.bohemiancoding.com/sketch/ns">
    <!-- Generator: Sketch 3.4.4 (17249) - http://www.bohemiancoding.com/sketch -->
    <title>Untitled 2</title>
    <desc>Created with Sketch.</desc>
    <defs></defs>
    <g id="Page-1" stroke="none" stroke-width="1" fill="none" fill-rule="evenodd" sketch:type="MSPage">
        <g id="guide-arrow" sketch:type="MSLayerGroup" fill="#000000">
            <g id="Group" sketch:type="MSShapeGroup">
                <path d="M84.3,3.7 C84,3.7 83.6,3.9 83.5,4.2 C50.9,55.3 1.6,57.5 1.1,57.5 C0.5,57.5 0.1,58 0.1,58.5 C0.1,59.1 0.6,59.5 1.1,59.5 C1.6,59.5 52,57.2 85.2,5.3 C85.5,4.8 85.4,4.2 84.9,3.9 C84.6,3.7 84.4,3.7 84.3,3.7 L84.3,3.7 Z" id="Shape"></path>
                <path d="M86.6,0 L80.7,2 C80.2,2.2 79.9,2.8 80.1,3.3 C80.3,3.8 80.8,4.1 81.4,3.9 L85.4,2.5 L86.7,6.4 C86.9,6.9 87.4,7.2 88,7 C88.5,6.8 88.8,6.3 88.6,5.7 L86.6,0 L86.6,0 Z" id="Shape"></path>
            </g>
        </g>
    </g>
</svg>