<?xml version="1.0" encoding="UTF-8" standalone="no"?>
<svg width="602px" height="87px" viewBox="0 0 602 87" version="1.1" xmlns="http://www.w3.org/2000/svg" xmlns:xlink="http://www.w3.org/1999/xlink" xmlns:sketch="http://www.bohemiancoding.com/sketch/ns">
    <!-- Generator: Sketch 3.2.2 (9983) - http://www.bohemiancoding.com/sketch -->
    <title>Slice 1</title>
    <desc>Created with Sketch.</desc>
    <defs></defs>
    <g id="Page-1" stroke="none" stroke-width="1" fill="none" fill-rule="evenodd" sketch:type="MSPage">
        <path d="M31.131,54.014 C27.774,54.014 27.904,54.014 26.743,57.492 L21.451,72.98 C18.873,80.596 19.389,80.85 24.167,81.63 L27.904,82.273 C28.81,83.172 28.674,85.488 27.647,86.013 L1.201,86.013 C0.287,85.364 0.161,83.429 1.067,82.273 L4.939,81.63 C8.677,80.977 10.917,79.945 12.849,75.692 C14.176,72.829 31.346,27.079 36.384,13.649 C37.146,11.615 37.173,8.313 36.446,6.263 L34.263,0.077 L49.708,0.077 L74.093,71.179 C77.061,79.822 77.711,80.596 84.291,81.883 L86.222,82.273 C87.253,83.172 87.253,85.364 86.352,86.013 L53.836,86.013 C52.806,85.364 52.676,83.049 53.45,82.273 L56.292,81.883 C60.939,81.233 61.586,80.466 59.645,75.045 C59.645,75.045 41.323,20.077 40.686,19.177 L40.422,19.177 C39.902,20.077 30.615,45.86 30.615,45.86 C29.33,49.607 29.584,49.607 32.682,49.607 C32.682,49.607 31.754,49.607 38.258,49.607 C42.26,49.607 44.11,52.034 44.792,53.279 C45.007,53.676 44.769,54.014 44.321,54.014 L31.131,54.014" id="Fill-1" fill="#FFFFFF" sketch:type="MSShapeGroup"></path>
        <path d="M279.633,19.823 C279.633,8.075 279.508,5.6 274.084,4.959 L269.568,4.449 C268.667,3.538 268.667,0.595 269.698,0.077 C269.698,0.077 286.473,0.082 298.211,0.082 C310.474,0.082 319.37,1.891 325.184,5.241 C331.888,9.239 336.145,16.079 336.145,24.596 C336.145,44.203 317.438,49.629 307.247,49.629 L303.096,49.629 C302.528,49.629 302.917,46.497 305.808,45.741 C315.902,42.842 319.635,34.751 319.635,24.85 C319.635,14.404 312.925,5.241 301.183,5.241 C294.733,5.241 294.609,5.623 294.609,10.663 L294.609,67.041 C294.609,80.721 295.764,81.107 301.824,81.757 L306.596,82.273 C307.373,83.172 307.247,85.488 306.345,86.013 L270.602,86.013 C269.568,85.488 269.441,83.172 270.342,82.273 L272.409,82.017 C278.472,81.233 279.633,80.721 279.633,67.041 L279.633,19.823" id="Fill-2" fill="#FFFFFF" sketch:type="MSShapeGroup"></path>
        <path d="M152.155,19.823 C152.155,8.075 152.021,5.6 146.611,4.959 L142.089,4.449 C141.188,3.538 141.188,0.595 142.223,0.077 C142.223,0.077 158.995,0.082 170.733,0.082 C182.99,0.082 191.896,1.891 197.706,5.241 C204.418,9.239 208.668,16.079 208.668,24.596 C208.668,44.203 189.959,49.629 179.764,49.629 L175.618,49.629 C175.049,49.629 175.439,46.497 178.33,45.741 C188.427,42.842 192.151,34.751 192.151,24.85 C192.151,14.404 185.441,5.241 173.701,5.241 C167.25,5.241 167.125,5.623 167.125,10.663 L167.125,67.041 C167.125,80.721 168.286,81.107 174.345,81.757 L179.124,82.273 C179.898,83.172 179.764,85.488 178.867,86.013 L143.12,86.013 C142.089,85.488 141.963,83.172 142.869,82.273 L144.927,82.017 C150.994,81.233 152.155,80.721 152.155,67.041 L152.155,19.823" id="Fill-3" fill="#FFFFFF" sketch:type="MSShapeGroup"></path>
        <path d="M432.694,42.499 C442.281,41.142 446.724,35.062 446.724,24.335 C446.724,14.144 440.138,5.241 428.916,5.241 C422.203,5.241 422.077,5.623 422.077,11.566 L422.077,67.041 C422.077,80.721 423.239,81.107 429.302,81.883 L432.138,82.273 C433.044,83.172 432.917,85.488 431.878,86.013 L397.306,86.013 C396.27,85.488 395.889,83.172 397.046,82.273 L399.882,81.883 C405.951,81.107 407.117,80.721 407.117,67.041 L407.117,19.823 C407.117,7.432 406.982,5.47 400.913,4.833 L397.566,4.449 C396.66,3.538 396.66,0.717 397.696,0.077 C397.696,0.077 416.789,0.082 427.371,0.082 C437.436,0.082 446.208,1.371 451.886,4.466 C458.466,7.947 463.234,14.014 463.234,23.31 C463.234,35.177 454.078,41.109 447.754,43.686 C446.978,44.073 447.238,45.103 447.754,45.878 C458.08,63.305 464.53,74.273 470.593,79.302 C474.202,82.398 477.943,83.172 479.5,83.302 C480.144,83.815 480.144,85.239 479.753,85.883 C478.208,86.27 475.751,86.649 471.239,86.649 C458.85,86.649 452.142,81.63 444.267,69.624 C440.789,64.2 437.172,57.11 434.081,52.082 C432.089,48.77 430.762,47.914 427.751,47.737 C427.253,47.698 426.689,47.687 426.075,47.687 C426.075,47.687 425.425,43.315 432.694,42.499" id="Fill-4" fill="#FFFFFF" sketch:type="MSShapeGroup"></path>
        <path d="M558.332,64.334 C558.332,70.782 558.585,75.432 560.519,77.623 C562.074,79.432 564.135,80.466 574.463,80.466 C588.771,80.466 590.838,79.822 596.777,66.527 C597.965,64.373 601.635,64.484 601.434,65.179 C601.227,65.877 595.357,86.013 595.357,86.013 L532.525,86.013 C531.493,85.488 531.108,82.911 532.269,82.273 L536.132,81.63 C542.201,80.596 543.356,80.466 543.356,67.041 L543.356,19.048 C543.356,5.623 542.201,5.241 536.132,4.335 L532.525,3.822 C531.619,3.176 531.619,0.595 532.78,0.082 L568.133,0.082 C569.295,0.595 569.418,3.176 568.393,3.822 L565.555,4.335 C559.487,5.367 558.332,5.623 558.332,19.048 L558.332,64.334" id="Fill-5" fill="#FFFFFF" sketch:type="MSShapeGroup"></path>
    </g>
</svg>